<svg width="278" height="100" viewBox="0 0 278 100" fill="none" xmlns="http://www.w3.org/2000/svg">
<rect width="278" height="100" rx="50" fill="#032745"/>
<path d="M63.9 39H66.7V67H63.9V53.4H49.2V67H46.4V39H49.2V50.6H63.9V39ZM80.9609 67.52C79.1209 67.52 77.4409 67.0467 75.9209 66.1C74.4143 65.1533 73.2076 63.8867 72.3009 62.3C71.4076 60.7 70.9609 58.9333 70.9609 57C70.9609 55.5333 71.2209 54.1667 71.7409 52.9C72.2609 51.62 72.9743 50.5 73.8809 49.54C74.8009 48.5667 75.8676 47.8067 77.0809 47.26C78.2943 46.7133 79.5876 46.44 80.9609 46.44C82.8009 46.44 84.4743 46.9133 85.9809 47.86C87.5009 48.8067 88.7076 50.08 89.6009 51.68C90.5076 53.28 90.9609 55.0533 90.9609 57C90.9609 58.4533 90.7009 59.8133 90.1809 61.08C89.6609 62.3467 88.9409 63.4667 88.0209 64.44C87.1143 65.4 86.0543 66.1533 84.8409 66.7C83.6409 67.2467 82.3476 67.52 80.9609 67.52ZM80.9609 64.72C82.3209 64.72 83.5409 64.3667 84.6209 63.66C85.7143 62.94 86.5743 61.9933 87.2009 60.82C87.8409 59.6467 88.1609 58.3733 88.1609 57C88.1609 55.6 87.8409 54.3133 87.2009 53.14C86.5609 51.9533 85.6943 51.0067 84.6009 50.3C83.5209 49.5933 82.3076 49.24 80.9609 49.24C79.6009 49.24 78.3743 49.6 77.2809 50.32C76.2009 51.0267 75.3409 51.9667 74.7009 53.14C74.0743 54.3133 73.7609 55.6 73.7609 57C73.7609 58.44 74.0876 59.7467 74.7409 60.92C75.3943 62.08 76.2676 63.0067 77.3609 63.7C78.4543 64.38 79.6543 64.72 80.9609 64.72ZM109.233 61.98L111.733 63.34C110.826 64.6067 109.673 65.62 108.273 66.38C106.886 67.14 105.38 67.52 103.753 67.52C101.913 67.52 100.233 67.0467 98.7131 66.1C97.2065 65.1533 95.9998 63.8867 95.0931 62.3C94.1998 60.7 93.7531 58.9333 93.7531 57C93.7531 55.5333 94.0131 54.1667 94.5331 52.9C95.0531 51.62 95.7665 50.5 96.6731 49.54C97.5931 48.5667 98.6598 47.8067 99.8731 47.26C101.086 46.7133 102.38 46.44 103.753 46.44C105.38 46.44 106.886 46.82 108.273 47.58C109.673 48.34 110.826 49.36 111.733 50.64L109.233 51.98C108.54 51.1 107.706 50.4267 106.733 49.96C105.76 49.48 104.766 49.24 103.753 49.24C102.406 49.24 101.186 49.6 100.093 50.32C98.9998 51.0267 98.1331 51.9667 97.4931 53.14C96.8665 54.3133 96.5531 55.6 96.5531 57C96.5531 58.4 96.8731 59.6867 97.5131 60.86C98.1665 62.0333 99.0398 62.9733 100.133 63.68C101.226 64.3733 102.433 64.72 103.753 64.72C104.846 64.72 105.873 64.4667 106.833 63.96C107.793 63.4533 108.593 62.7933 109.233 61.98ZM116.144 67V47H118.944V49.76C119.65 48.7467 120.57 47.94 121.704 47.34C122.837 46.74 124.07 46.44 125.404 46.44C126.177 46.44 126.924 46.54 127.644 46.74L126.504 49.52C125.944 49.3467 125.397 49.26 124.864 49.26C123.784 49.26 122.79 49.5267 121.884 50.06C120.99 50.5933 120.277 51.3067 119.744 52.2C119.21 53.0933 118.944 54.0867 118.944 55.18V67H116.144ZM138.712 67.52C136.872 67.52 135.192 67.0467 133.672 66.1C132.166 65.1533 130.959 63.8867 130.052 62.3C129.159 60.7 128.712 58.9333 128.712 57C128.712 55.5333 128.972 54.1667 129.492 52.9C130.012 51.62 130.726 50.5 131.632 49.54C132.552 48.5667 133.619 47.8067 134.832 47.26C136.046 46.7133 137.339 46.44 138.712 46.44C140.192 46.44 141.552 46.7333 142.792 47.32C144.046 47.9067 145.119 48.7267 146.012 49.78C146.919 50.8333 147.599 52.0667 148.052 53.48C148.519 54.8933 148.712 56.42 148.632 58.06H131.672C131.832 59.3267 132.232 60.46 132.872 61.46C133.526 62.46 134.352 63.2533 135.352 63.84C136.366 64.4133 137.486 64.7067 138.712 64.72C140.046 64.72 141.246 64.3733 142.312 63.68C143.392 62.9867 144.259 62.0333 144.912 60.82L147.752 61.48C146.952 63.2533 145.746 64.7067 144.132 65.84C142.519 66.96 140.712 67.52 138.712 67.52ZM131.592 55.8H145.812C145.719 54.56 145.339 53.4267 144.672 52.4C144.019 51.36 143.172 50.5333 142.132 49.92C141.092 49.2933 139.952 48.98 138.712 48.98C137.472 48.98 136.339 49.2867 135.312 49.9C134.286 50.5 133.446 51.32 132.792 52.36C132.139 53.3867 131.739 54.5333 131.592 55.8ZM169.106 47H171.906V67H169.106L169.006 63.28C168.352 64.5467 167.439 65.5733 166.266 66.36C165.092 67.1333 163.692 67.52 162.066 67.52C160.599 67.52 159.226 67.2467 157.946 66.7C156.666 66.14 155.539 65.3733 154.566 64.4C153.592 63.4267 152.832 62.3 152.286 61.02C151.739 59.74 151.466 58.3667 151.466 56.9C151.466 55.46 151.732 54.1067 152.266 52.84C152.812 51.5733 153.559 50.46 154.506 49.5C155.466 48.54 156.572 47.7933 157.826 47.26C159.092 46.7133 160.446 46.44 161.886 46.44C163.552 46.44 165.006 46.84 166.246 47.64C167.486 48.4267 168.472 49.46 169.206 50.74L169.106 47ZM162.006 64.8C163.432 64.8 164.659 64.4533 165.686 63.76C166.712 63.0533 167.499 62.1067 168.046 60.92C168.606 59.7333 168.886 58.4267 168.886 57C168.886 55.5333 168.606 54.2133 168.046 53.04C167.486 51.8533 166.692 50.9133 165.666 50.22C164.639 49.5267 163.419 49.18 162.006 49.18C160.592 49.18 159.299 49.5333 158.126 50.24C156.966 50.9333 156.039 51.8733 155.346 53.06C154.666 54.2467 154.326 55.56 154.326 57C154.326 58.4533 154.679 59.7733 155.386 60.96C156.092 62.1333 157.026 63.0667 158.186 63.76C159.359 64.4533 160.632 64.8 162.006 64.8ZM186.928 49.8H182.148L182.128 67H179.328L179.348 49.8H175.728V47H179.348L179.328 40.72H182.128L182.148 47H186.928V49.8Z" fill="#72A64A"/>
<rect x="199" y="33" width="35" height="34" rx="17" fill="#72A64A"/>
<path d="M207.04 57.8545L224.966 42.5169M224.966 42.5169C221.758 44.0272 218 45.4999 213 43.9999M224.966 42.5169C223.072 45.5353 220.96 48.6453 222 53.9999" stroke="#012425" stroke-width="2" stroke-linecap="round" stroke-linejoin="round"/>
</svg>
